<?xml version="1.0" encoding="utf-8"?>
<!-- Generator: Adobe Illustrator 18.1.1, SVG Export Plug-In . SVG Version: 6.00 Build 0)  -->
<svg version="1.1" id="Layer_1" xmlns="http://www.w3.org/2000/svg" xmlns:xlink="http://www.w3.org/1999/xlink" x="0px" y="0px"
	 viewBox="0 0 600.8 106.3" enable-background="new 0 0 600.8 106.3" xml:space="preserve">
<g>
	<g>
		<rect x="36" y="2" fill="#F90D35" width="12" height="12"/>
		<rect x="48.1" y="14" fill="#BA061C" width="22.5" height="22.5"/>
		<rect x="70.5" y="36.5" fill="#8E040C" width="22.5" height="22.5"/>
		<rect x="48.1" y="58.9" fill="#E2102E" width="22.5" height="22.5"/>
		<rect x="25.6" y="81.5" fill="#8E040C" width="22.5" height="22.5"/>
		<rect x="3.7" y="59.2" fill="#F90D35" width="22" height="22"/>
		<rect x="10.2" y="21" fill="#E2102E" width="15.5" height="15.5"/>
	</g>
	<g>
		<path fill="#082336" d="M168.1,12.8l-4.9,8.7c-5.7-4.4-11.8-5.1-17.4-5.1c-4.2,0.1-7.6,1.5-7.6,4.9c0,1.1,1.1,2.9,2.4,3.6
			c1.3,0.7,3.7,1.5,8.1,2.6l5.6,1.4c2.7,0.7,6.3,2,8.3,3.2c2.1,1.1,4,2.5,5.2,4.4c1.1,1.9,2.6,4.6,2.3,7.6
			c-0.9,10-7.9,15.8-21.2,16.6c-7.1,0.4-19.3-2.3-25.5-10.2l6.6-8.3c4.6,5.4,12.7,8.2,20.2,7.9c4.2-0.1,7.3-2.3,7.4-4.8
			c0-1.9-0.8-2.9-1.9-3.8c-1.2-0.9-3.9-2-8.6-3.1l-1.3-0.3c-5.5-1.4-8.6-2.3-12.3-4c-5.1-2.4-7.8-5.6-7.8-11.6
			c0-11.4,9.5-16.8,21.5-16.8C155.6,6.1,162.1,7.8,168.1,12.8z"/>
		<path fill="#082336" d="M226.6,59.9h-9.1l-9.3-28.4l-8.9,28.4h-9l-14.6-45.3h11.1l8.1,30.3l9.8-30.3h7.2l9.8,30.1l8-30.1h10.6
			L226.6,59.9z"/>
		<path fill="#082336" d="M258.5,60h-10.5V14.6h10.5V60z"/>
		<path fill="#082336" d="M307.9,19.7l-4.4,7.4c-4.6-3.4-10.1-4.6-14.9-4.6c-3.6,0.1-6.6,1.4-6.6,4.2c0,1,0.7,2.2,1.7,3
			c1.2,0.9,3.7,1.6,7.5,2.6l4.6,1.2c2.3,0.6,5.5,1.9,7.3,2.9c1.8,1,3.5,2.3,4.5,3.9c1,1.6,1.6,3.4,1.6,6.1c0,9.4-9.1,14.4-18.1,14.5
			c-8.5,0-16.3-2-21.8-8.7l5.4-7c4.3,4.8,11,6.8,17.5,6.8c3.6,0,5.9-1.3,5.9-4.4c0-1.6-0.6-2.8-1.7-3.4c-1.1-0.7-3-1.2-7.1-2.2
			l-1.1-0.3c-4.7-1.3-7.4-2-10.6-3.5c-4.5-2.9-6.7-6.3-6.7-10.3c0-8.3,8.2-14,18.5-14.1C297,13.8,303.1,15.6,307.9,19.7z"/>
		<path fill="#082336" d="M355.8,19.7l-4.4,7.4c-4.6-3.4-10.1-4.6-14.9-4.6c-3.6,0.1-6.6,1.4-6.6,4.2c0,1,0.7,2.2,1.7,3
			c1.2,0.9,3.7,1.6,7.5,2.6l4.6,1.2c2.3,0.6,5.5,1.9,7.3,2.9c1.8,1,3.5,2.3,4.5,3.9c1,1.6,1.6,3.4,1.6,6.1c0,9.4-9.1,14.4-18.1,14.5
			c-8.5,0-16.3-2-21.8-8.7l5.4-7c4.3,4.8,11,6.8,17.5,6.8c3.6,0,5.9-1.3,5.9-4.4c0-1.6-0.6-2.8-1.7-3.4c-1.1-0.7-3-1.2-7.1-2.2
			l-1.1-0.3c-4.7-1.3-7.4-2-10.6-3.5c-4.5-2.9-6.7-6.3-6.7-10.3c0-8.3,8.2-14,18.5-14.1C344.9,13.8,351,15.6,355.8,19.7z"/>
		<path fill="#082336" d="M414.3,14.5l-6.4,7.4c-4.6-4.4-9.3-4.8-14.2-4.8c-4.4,0-8.1,1.9-11.1,5c-3,3.1-4.4,6.9-4.4,11.4
			s1.4,8.3,4.4,11.4c3,3.1,6.7,4.6,11.1,4.6c5,0,10.2,0,15.7-5.8l6.2,7.2c-4.8,7.1-15.3,10.2-22,10c-19-0.7-28.4-12.6-28-27.4
			c-0.4-14.9,11.5-27.4,28-27.4C402.1,6.1,408.5,8.7,414.3,14.5z"/>
		<path fill="#082336" d="M467.6,59.9h-10.5v-18h-20.1v18h-10.5V14.7h10.5v17.6h20.1V14.7h10.5V59.9z"/>
		<path fill="#082336" d="M523.6,60H513l-3.6-8.3h-20.3l-3.6,8.3h-10.3l20.1-45.3h8.3L523.6,60z M493.1,43h12.2l-5.8-14.9L493.1,43z
			"/>
		<path fill="#082336" d="M542.6,60h-10.5V14.6h10.5V60z"/>
		<path fill="#082336" d="M598.1,60h-8.7l-23.7-29.4V60H556V14.7h8.8l23.7,29.4V14.7h9.6V60z"/>
	</g>
	<g>
		<path fill="#082336" stroke="#082336" stroke-width="0.25" stroke-miterlimit="10" d="M170.9,103.1V81.4h-12.4v-1.9h26.9v1.9H173
			v21.7H170.9z"/>
		<path fill="#082336" stroke="#082336" stroke-width="0.25" stroke-miterlimit="10" d="M195.1,103.1V79.5h23.2v1.9h-21v8.5h14.9
			v1.9h-14.9v9.3h21.4v2H195.1z"/>
		<path fill="#082336" stroke="#082336" stroke-width="0.25" stroke-miterlimit="10" d="M234.7,103.1c-1.8,0-3-0.3-3.7-0.9
			s-1-1.7-1-3.3V83.8c0-1.6,0.3-2.8,1-3.4c0.7-0.6,1.9-0.9,3.7-0.9H254v1.9h-19.5c-0.9,0-1.5,0.1-1.8,0.4s-0.5,0.7-0.5,1.4v16.1
			c0,0.7,0.2,1.2,0.5,1.5s0.9,0.4,1.8,0.4H254v2H234.7z"/>
		<path fill="#082336" stroke="#082336" stroke-width="0.25" stroke-miterlimit="10" d="M289.2,103.1V91.8h-21.7v11.3h-2.2V79.5h2.2
			v10.4h21.7V79.5h2.2v23.6H289.2z"/>
		<path fill="#082336" stroke="#082336" stroke-width="0.25" stroke-miterlimit="10" d="M329.2,103.1l-20.4-18.3
			c-1.2-1-2-1.9-2.7-2.6H306c0.1,0.8,0.1,1.8,0.1,3.2v17.7H304V79.5h2l20.2,18.1c1.3,1.2,2.3,2.1,2.9,2.8h0.1
			c-0.1-0.8-0.1-1.9-0.1-3.3V79.5h2.2v23.6H329.2z"/>
		<path fill="#082336" stroke="#082336" stroke-width="0.25" stroke-miterlimit="10" d="M348.2,103.3c-1.8,0-3-0.3-3.7-0.9
			c-0.7-0.6-1-1.7-1-3.4V83.6c0-1.6,0.3-2.8,1-3.4c0.7-0.6,1.9-0.9,3.7-0.9h18.4c1.8,0,3,0.3,3.7,0.9c0.7,0.6,1,1.7,1,3.4v15.4
			c0,1.6-0.3,2.8-1,3.4c-0.7,0.6-1.9,0.9-3.7,0.9H348.2z M369.1,83.1c0-0.7-0.2-1.2-0.5-1.4c-0.3-0.3-0.9-0.4-1.8-0.4H348
			c-0.9,0-1.5,0.1-1.8,0.4c-0.3,0.3-0.5,0.7-0.5,1.4v16.4c0,0.7,0.2,1.2,0.5,1.5c0.3,0.2,0.9,0.4,1.8,0.4h18.8
			c0.9,0,1.5-0.1,1.8-0.4c0.3-0.2,0.5-0.7,0.5-1.5V83.1z"/>
		<path fill="#082336" stroke="#082336" stroke-width="0.25" stroke-miterlimit="10" d="M383.7,103.1V79.5h2.2v21.6h19.9v2H383.7z"
			/>
		<path fill="#082336" stroke="#082336" stroke-width="0.25" stroke-miterlimit="10" d="M419.9,103.3c-1.8,0-3-0.3-3.7-0.9
			c-0.7-0.6-1-1.7-1-3.4V83.6c0-1.6,0.3-2.8,1-3.4c0.7-0.6,1.9-0.9,3.7-0.9h18.4c1.8,0,3,0.3,3.7,0.9c0.7,0.6,1,1.7,1,3.4v15.4
			c0,1.6-0.3,2.8-1,3.4c-0.7,0.6-1.9,0.9-3.7,0.9H419.9z M440.8,83.1c0-0.7-0.2-1.2-0.5-1.4c-0.3-0.3-0.9-0.4-1.8-0.4h-18.8
			c-0.9,0-1.5,0.1-1.8,0.4c-0.3,0.3-0.5,0.7-0.5,1.4v16.4c0,0.7,0.2,1.2,0.5,1.5c0.3,0.2,0.9,0.4,1.8,0.4h18.8
			c0.9,0,1.5-0.1,1.8-0.4c0.3-0.2,0.5-0.7,0.5-1.5V83.1z"/>
		<path fill="#082336" stroke="#082336" stroke-width="0.25" stroke-miterlimit="10" d="M459.8,103.3c-1.8,0-3-0.3-3.7-0.9
			c-0.7-0.6-1-1.7-1-3.4V83.8c0-1.6,0.3-2.8,1-3.4s1.9-0.9,3.7-0.9h21.8v1.9h-22c-0.9,0-1.5,0.1-1.8,0.4c-0.3,0.3-0.5,0.7-0.5,1.4
			v16.2c0,0.7,0.2,1.2,0.5,1.5c0.3,0.2,0.9,0.4,1.8,0.4h17.6c0.9,0,1.5-0.1,1.8-0.4s0.5-0.7,0.5-1.5v-7.2h-7.3v-1.9h9.5v8.8
			c0,1.6-0.3,2.7-1,3.3c-0.7,0.6-1.9,0.9-3.7,0.9H459.8z"/>
		<path fill="#082336" stroke="#082336" stroke-width="0.25" stroke-miterlimit="10" d="M494.1,103.1V79.5h2.2v23.6H494.1z"/>
		<path fill="#082336" stroke="#082336" stroke-width="0.25" stroke-miterlimit="10" d="M508.9,103.1V79.5H532v1.9h-21v8.5h14.9v1.9
			H511v9.3h21.4v2H508.9z"/>
		<path fill="#082336" stroke="#082336" stroke-width="0.25" stroke-miterlimit="10" d="M543.5,103.1v-2h20.1c0.9,0,1.5-0.1,1.7-0.4
			c0.3-0.2,0.4-0.7,0.4-1.5v-5.7c0-0.7-0.1-1.2-0.4-1.5c-0.3-0.2-0.8-0.4-1.7-0.4h-15.8c-1.7,0-2.8-0.3-3.4-0.9
			c-0.6-0.6-0.9-1.7-0.9-3.4v-3.8c0-1.7,0.3-2.8,0.9-3.4c0.6-0.6,1.8-0.9,3.6-0.9h18.5v1.9h-18.7c-0.9,0-1.5,0.1-1.7,0.4
			c-0.3,0.2-0.4,0.7-0.4,1.5v4.8c0,0.7,0.1,1.2,0.4,1.5c0.3,0.2,0.8,0.4,1.7,0.4h15.6c1.8,0,2.9,0.3,3.6,0.9s0.9,1.7,0.9,3.3V99
			c0,1.6-0.3,2.7-0.9,3.3s-1.8,0.9-3.6,0.9H543.5z"/>
	</g>
</g>
</svg>
